<svg width="124" height="40" viewBox="0 0 124 40" fill="none" xmlns="http://www.w3.org/2000/svg">
<path d="M45.4893 19.2529C48.1826 19.2529 49.8643 17.6123 49.8643 14.9941V13.7432H45.7217V15.2471H47.8545L47.8477 15.4316C47.8066 16.6758 46.877 17.5029 45.5234 17.5029C43.8965 17.5029 42.8643 16.1836 42.8643 14.0439V14.0303C42.8643 11.9316 43.8486 10.6328 45.4414 10.6328C46.5967 10.6328 47.4375 11.2139 47.7178 12.1914L47.7314 12.2598H49.7822L49.7686 12.1914C49.4746 10.2227 47.7725 8.88281 45.4414 8.88281C42.5703 8.88281 40.7588 10.8857 40.7588 14.0508V14.0645C40.7588 17.2773 42.5566 19.2529 45.4893 19.2529ZM51.6484 19H53.6445V14.7891C53.6445 13.7227 54.3623 13.0732 55.4971 13.0732C55.8047 13.0732 56.1123 13.1211 56.4131 13.1895V11.4463C56.2148 11.3916 55.9346 11.3506 55.668 11.3506C54.6904 11.3506 54.0068 11.8291 53.7676 12.6426H53.6445V11.4736H51.6484V19ZM60.877 19.1572C63.0781 19.1572 64.0488 17.8857 64.2812 16.9424L64.2949 16.874H62.4355L62.415 16.915C62.2783 17.2021 61.793 17.667 60.918 17.667C59.8584 17.667 59.1953 16.9492 59.1748 15.7119H64.3564V15.0898C64.3564 12.8135 62.9893 11.3096 60.7949 11.3096C58.6006 11.3096 57.1992 12.8477 57.1992 15.2402V15.2471C57.1992 17.6602 58.5869 19.1572 60.877 19.1572ZM60.8291 12.8066C61.6973 12.8066 62.3193 13.3672 62.4424 14.4609H59.1953C59.3184 13.3945 59.9609 12.8066 60.8291 12.8066ZM69.2988 19.1572C71.5 19.1572 72.4707 17.8857 72.7031 16.9424L72.7168 16.874H70.8574L70.8369 16.915C70.7002 17.2021 70.2148 17.667 69.3398 17.667C68.2803 17.667 67.6172 16.9492 67.5967 15.7119H72.7783V15.0898C72.7783 12.8135 71.4111 11.3096 69.2168 11.3096C67.0225 11.3096 65.6211 12.8477 65.6211 15.2402V15.2471C65.6211 17.6602 67.0088 19.1572 69.2988 19.1572ZM69.251 12.8066C70.1191 12.8066 70.7412 13.3672 70.8643 14.4609H67.6172C67.7402 13.3945 68.3828 12.8066 69.251 12.8066ZM74.4121 19H76.4082V14.6455C76.4082 13.627 76.9688 12.9639 77.8916 12.9639C78.835 12.9639 79.2725 13.5244 79.2725 14.584V19H81.2686V14.1328C81.2686 12.335 80.3662 11.3096 78.6914 11.3096C77.6182 11.3096 76.873 11.8223 76.5312 12.6357H76.4082V11.4736H74.4121V19ZM87.0107 19H93.4639V17.2979H89.0752V9.13574H87.0107V19ZM96.1572 10.3184C96.7725 10.3184 97.2783 9.82617 97.2783 9.21094C97.2783 8.58887 96.7725 8.09668 96.1572 8.09668C95.542 8.09668 95.0293 8.58887 95.0293 9.21094C95.0293 9.82617 95.542 10.3184 96.1572 10.3184ZM95.1523 19H97.1484V11.4736H95.1523V19ZM99.1582 19H101.154V14.6455C101.154 13.627 101.715 12.9639 102.638 12.9639C103.581 12.9639 104.019 13.5244 104.019 14.584V19H106.015V14.1328C106.015 12.335 105.112 11.3096 103.438 11.3096C102.364 11.3096 101.619 11.8223 101.277 12.6357H101.154V11.4736H99.1582V19ZM111.258 19.1572C113.459 19.1572 114.43 17.8857 114.662 16.9424L114.676 16.874H112.816L112.796 16.915C112.659 17.2021 112.174 17.667 111.299 17.667C110.239 17.667 109.576 16.9492 109.556 15.7119H114.737V15.0898C114.737 12.8135 113.37 11.3096 111.176 11.3096C108.981 11.3096 107.58 12.8477 107.58 15.2402V15.2471C107.58 17.6602 108.968 19.1572 111.258 19.1572ZM111.21 12.8066C112.078 12.8066 112.7 13.3672 112.823 14.4609H109.576C109.699 13.3945 110.342 12.8066 111.21 12.8066ZM119.365 19.1572C121.293 19.1572 122.667 18.1865 122.667 16.6963V16.6895C122.667 15.5752 121.963 14.9463 120.459 14.625L119.208 14.3584C118.429 14.1875 118.148 13.9551 118.148 13.5518V13.5449C118.148 13.0391 118.641 12.7178 119.331 12.7178C120.076 12.7178 120.521 13.0938 120.63 13.4971L120.637 13.5312H122.489V13.5039C122.407 12.2939 121.313 11.3096 119.338 11.3096C117.458 11.3096 116.2 12.2529 116.2 13.668V13.6748C116.2 14.8027 116.911 15.5068 118.347 15.8145L119.604 16.0811C120.37 16.252 120.671 16.5049 120.671 16.9082V16.9219C120.671 17.4209 120.151 17.749 119.386 17.749C118.6 17.749 118.142 17.4141 117.984 16.9492L117.971 16.9219H116.009L116.016 16.9492C116.159 18.2412 117.321 19.1572 119.365 19.1572Z" fill="#198754"/>
<path d="M44.7852 32.209H41.3965L42.7295 25.9541H41.8311L40.332 33H44.6191L44.7852 32.209ZM47.9297 33.0928C49.1553 33.0928 49.9854 32.4678 50.2002 31.6572H49.3066C49.0869 32.0625 48.6768 32.3262 47.9834 32.3262C47.3486 32.3262 46.665 31.9111 46.665 30.8271C46.665 30.7393 46.6699 30.6514 46.6748 30.5635H50.4688C50.5029 30.3633 50.5322 29.9775 50.5322 29.7725C50.5273 28.4053 49.6143 27.6436 48.5303 27.6436C46.9238 27.6436 45.791 28.9473 45.791 30.8906C45.791 32.3115 46.7529 33.0928 47.9297 33.0928ZM46.7871 29.8848C47.0312 28.9863 47.6416 28.3857 48.4521 28.3857C49.2432 28.3857 49.6533 28.9717 49.6533 29.665C49.6533 29.748 49.6484 29.8555 49.6436 29.8848H46.7871ZM53.1299 33.0391C53.3154 33.0391 53.5059 33.0293 53.6523 32.9951L53.8037 32.2822C53.6914 32.2969 53.5889 32.3018 53.4375 32.3018C53.0176 32.3018 52.7734 32.1357 52.7734 31.7354C52.7734 31.6035 52.793 31.4473 52.832 31.2617L53.4326 28.4395H54.6191L54.7754 27.7363H53.5791L53.8672 26.374H53.0127L52.7344 27.7363H51.8457L51.6992 28.4395H52.583L51.9238 31.5205C51.8896 31.6865 51.8701 31.8379 51.8701 31.9746C51.8701 32.6875 52.3975 33.0391 53.1299 33.0391ZM57.71 33H58.5645L59.2773 29.6406C59.4336 28.8936 60.0439 28.4004 60.6689 28.4004C61.2646 28.4004 61.6064 28.8154 61.6064 29.3184C61.6064 29.4697 61.582 29.6406 61.543 29.8311L60.8691 33H61.7236L62.4268 29.6992C62.5977 28.8887 63.2031 28.4004 63.8281 28.4004C64.4238 28.4004 64.7656 28.8154 64.7656 29.3184C64.7656 29.4697 64.7412 29.6406 64.7021 29.8311L64.0283 33H64.8828L65.5859 29.6846C65.6299 29.4697 65.6543 29.2646 65.6543 29.0791C65.6543 28.2393 65.0195 27.6436 64.165 27.6436C63.3594 27.6436 62.793 28.0977 62.4756 28.6055H62.3975C62.2852 28.1221 61.7725 27.6436 61.0059 27.6436C60.415 27.6436 59.834 28.0293 59.5508 28.5469H59.4727L59.6436 27.7363H58.8281L57.71 33ZM66.4502 34.9141C67.168 34.9141 67.6367 34.6504 68.252 33.5762L71.6016 27.7363H70.6787L68.374 31.9209H68.2959L67.6709 27.7363H66.8359L67.6904 32.9609L67.5 33.3174C67.1387 33.9912 66.8506 34.2012 66.499 34.2012C66.2793 34.2012 66.0889 34.167 65.9912 34.1377L65.8447 34.8359C65.9375 34.8604 66.2012 34.9141 66.4502 34.9141ZM74.9121 34.7578L75.5029 32.0283H75.5811C75.7666 32.6582 76.3965 33.0928 77.1582 33.0928C78.6768 33.0928 79.8535 31.6035 79.8535 29.6797C79.8535 28.5029 79.0381 27.6436 77.9785 27.6436C77.3096 27.6436 76.6797 27.9561 76.2988 28.4541H76.2207L76.3721 27.7363H75.5615L74.0674 34.7578H74.9121ZM77.0947 32.3359C76.2793 32.3359 75.7715 31.7744 75.7715 30.8809C75.7715 29.4893 76.6211 28.4004 77.71 28.4004C78.5059 28.4004 78.9746 28.918 78.9746 29.8066C78.9746 31.252 78.1689 32.3359 77.0947 32.3359ZM82.959 33.0928C84.1846 33.0928 85.0146 32.4678 85.2295 31.6572H84.3359C84.1162 32.0625 83.7061 32.3262 83.0127 32.3262C82.3779 32.3262 81.6943 31.9111 81.6943 30.8271C81.6943 30.7393 81.6992 30.6514 81.7041 30.5635H85.498C85.5322 30.3633 85.5615 29.9775 85.5615 29.7725C85.5566 28.4053 84.6436 27.6436 83.5596 27.6436C81.9531 27.6436 80.8203 28.9473 80.8203 30.8906C80.8203 32.3115 81.7822 33.0928 82.959 33.0928ZM81.8164 29.8848C82.0605 28.9863 82.6709 28.3857 83.4814 28.3857C84.2725 28.3857 84.6826 28.9717 84.6826 29.665C84.6826 29.748 84.6777 29.8555 84.6729 29.8848H81.8164ZM89.3457 27.6436C87.71 27.6436 86.5527 29.001 86.5527 30.915C86.5527 32.2041 87.4316 33.0928 88.7061 33.0928C90.3125 33.0928 91.4893 31.7061 91.4893 29.8115C91.4893 28.5225 90.6201 27.6436 89.3457 27.6436ZM88.8135 32.3359C87.9932 32.3359 87.4463 31.7256 87.4463 30.8125C87.4463 29.3721 88.1836 28.4004 89.2676 28.4004C90.0928 28.4004 90.5908 29.0107 90.5908 30.0117C90.5908 31.291 89.7949 32.3359 88.8135 32.3359ZM92.6953 34.7578L93.2861 32.0283H93.3643C93.5498 32.6582 94.1797 33.0928 94.9414 33.0928C96.46 33.0928 97.6367 31.6035 97.6367 29.6797C97.6367 28.5029 96.8213 27.6436 95.7617 27.6436C95.0928 27.6436 94.4629 27.9561 94.082 28.4541H94.0039L94.1553 27.7363H93.3447L91.8506 34.7578H92.6953ZM94.8779 32.3359C94.0625 32.3359 93.5547 31.7744 93.5547 30.8809C93.5547 29.4893 94.4043 28.4004 95.4932 28.4004C96.2891 28.4004 96.7578 28.918 96.7578 29.8066C96.7578 31.252 95.9521 32.3359 94.8779 32.3359ZM98.374 33H99.2334L100.796 25.6465H99.9365L98.374 33ZM103.262 33.0928C104.487 33.0928 105.317 32.4678 105.532 31.6572H104.639C104.419 32.0625 104.009 32.3262 103.315 32.3262C102.681 32.3262 101.997 31.9111 101.997 30.8271C101.997 30.7393 102.002 30.6514 102.007 30.5635H105.801C105.835 30.3633 105.864 29.9775 105.864 29.7725C105.859 28.4053 104.946 27.6436 103.862 27.6436C102.256 27.6436 101.123 28.9473 101.123 30.8906C101.123 32.3115 102.085 33.0928 103.262 33.0928ZM102.119 29.8848C102.363 28.9863 102.974 28.3857 103.784 28.3857C104.575 28.3857 104.985 28.9717 104.985 29.665C104.985 29.748 104.98 29.8555 104.976 29.8848H102.119ZM111.377 35.0166C112.744 35.0166 113.638 34.3281 113.867 33.2539L115.059 27.7363H114.243L114.038 28.708H113.96C113.75 28.0879 113.057 27.6436 112.314 27.6436C110.825 27.6436 109.697 28.9424 109.697 30.8174C109.697 32.0723 110.542 32.9219 111.611 32.9219C112.275 32.9219 112.822 32.6631 113.203 32.1309H113.281L113.052 33.1074C112.891 33.7959 112.388 34.2891 111.445 34.2891C110.674 34.2891 110.21 33.9375 110.137 33.5176H109.243C109.307 34.3184 110.156 35.0166 111.377 35.0166ZM111.87 32.1797C111.074 32.1797 110.576 31.6279 110.576 30.6904C110.576 29.2939 111.333 28.4004 112.378 28.4004C113.203 28.4004 113.73 28.9619 113.73 29.8555C113.73 31.2471 112.93 32.1797 111.87 32.1797ZM118.564 27.6436C116.929 27.6436 115.771 29.001 115.771 30.915C115.771 32.2041 116.65 33.0928 117.925 33.0928C119.531 33.0928 120.708 31.7061 120.708 29.8115C120.708 28.5225 119.839 27.6436 118.564 27.6436ZM118.032 32.3359C117.212 32.3359 116.665 31.7256 116.665 30.8125C116.665 29.3721 117.402 28.4004 118.486 28.4004C119.312 28.4004 119.81 29.0107 119.81 30.0117C119.81 31.291 119.014 32.3359 118.032 32.3359Z" fill="#6C757D"/>
<path fill-rule="evenodd" clip-rule="evenodd" d="M19.9317 17.1411C15.7494 17.1778 12.3704 20.5777 12.3704 24.7664C12.3704 28.9552 15.7494 32.3551 19.9317 32.3918V31.651C16.1581 31.6144 13.1111 28.5457 13.1111 24.7664C13.1111 20.9872 16.1581 17.9185 19.9317 17.8819V17.1411Z" fill="#0B4DA1"/>
<path fill-rule="evenodd" clip-rule="evenodd" d="M20.0684 17.1411C24.2506 17.1778 27.6297 20.5777 27.6297 24.7664C27.6297 28.9552 24.2506 32.3551 20.0684 32.3918V31.651C23.8419 31.6144 26.8889 28.5457 26.8889 24.7664C26.8889 20.9872 23.8419 17.9185 20.0684 17.8819V17.1411Z" fill="#EFDB30"/>
<path fill-rule="evenodd" clip-rule="evenodd" d="M19.86 36.9947C21.0956 26.2346 15.5656 22.0743 12.7917 21.3203L12.9861 20.6055C16.15 21.4656 21.8687 25.9947 20.5959 37.0792L19.86 36.9947Z" fill="#0B4DA1"/>
<path fill-rule="evenodd" clip-rule="evenodd" d="M19.7375 37.0792C18.4646 25.9947 24.1833 21.4656 27.3473 20.6055L27.5416 21.3203C24.7677 22.0743 19.2378 26.2346 20.4734 36.9947L19.7375 37.0792Z" fill="#EFDB30"/>
<path fill-rule="evenodd" clip-rule="evenodd" d="M12.4042 8.74902L12.9821 9.14016C13.8409 9.72136 15.2819 10.7889 16.5346 12.2158C17.784 13.6389 18.8783 15.4562 18.9749 17.5333L18.235 17.5677C18.1495 15.7296 17.175 14.068 15.978 12.7045C15.0298 11.6245 13.9621 10.7546 13.1449 10.1595V24.0836H12.4042V8.74902Z" fill="#0B4DA1"/>
<path fill-rule="evenodd" clip-rule="evenodd" d="M27.6101 8.74976V24.0609H26.8693V10.159C26.0521 10.7531 24.9843 11.6218 24.0361 12.7002C22.8391 14.0615 21.8648 15.7204 21.7792 17.5553L21.0393 17.5208C21.136 15.4466 22.2304 13.6319 23.4798 12.211C24.7326 10.7863 26.1735 9.72043 27.0323 9.14014L27.6101 8.74976Z" fill="#EFDB30"/>
<path fill-rule="evenodd" clip-rule="evenodd" d="M19.6752 2.48145V20.9207C19.6752 21.9069 19.3205 22.87 18.7777 23.744C17.6387 25.5777 16.6049 28.0651 16.5525 30.5693C16.5008 33.046 17.4124 35.5297 20.0847 37.3692L20.159 37.4811C20.1744 37.4711 20.1897 37.4607 20.205 37.4507C20.2204 37.4607 20.2359 37.4711 20.2514 37.4814L20.3264 37.3681C22.9934 35.5254 23.8619 33.0368 23.764 30.5584C23.6651 28.0534 22.5827 25.5665 21.4282 23.7359C20.8818 22.8696 20.5298 21.9086 20.5298 20.9244V2.48145H20.416H19.7891H19.6752ZM20.1021 22.6988C19.9261 23.2042 19.6858 23.6857 19.4069 24.1348C18.3097 25.9013 17.3418 28.2585 17.2931 30.5847C17.248 32.7455 17.9928 34.8875 20.2041 36.5431C22.4029 34.8888 23.1092 32.7488 23.0238 30.5876C22.9319 28.2595 21.9172 25.8999 20.8016 24.131C20.5195 23.6836 20.2783 23.2033 20.1021 22.6988Z" fill="#7DB85A"/>
</svg>
